# xmcd
#
# Track frame offsets: 
#        150
#        21707
#        42795
#        56232
#        76775
#        90850
#        109682
#        127505
#        144240
#        161807
#        177437
#        198872
#        214067
#        240307
#        255477
#        271095
#        285697
#        297947
#        323330
#
# Disc length: 4626 seconds
#
# Revision: 1
# Processed by: cddbd v1.5.2PL0 Copyright (c) Steve Scherf et al.
# Submitted via: ExactAudioCopy v0.99pb5
#
DISCID=fa121013
DTITLE=Paul Simon - Shining Like A National Guitar - Greatest Hits
DYEAR=2000
DGENRE=
TTITLE0=Graceland
TTITLE1=You Can Call Me Al
TTITLE2=Mother And Child Reunion
TTITLE3=The Cool, Cool River
TTITLE4=50 Ways To Leave Your Lover
TTITLE5=The Obvious Child
TTITLE6=The Boy In The Bubble
TTITLE7=Rene And Georgette Magritte With Their Dog After The War
TTITLE8=Late In The Evening
TTITLE9=Bernadette
TTITLE10=Slip Slidin' Away
TTITLE11=Take Me To The Mardi Gras
TTITLE12=Diamonds On The Soles Of Her Shoes
TTITLE13=Still Crazy After All These Years
TTITLE14=Kodachrome (R)
TTITLE15=Loves Me Like A Rock
TTITLE16=Me And Julio Down By The Schoolyard
TTITLE17=Hearts And Bones
TTITLE18=Trailways Bus
EXTD=
EXTT0=
EXTT1=
EXTT2=
EXTT3=
EXTT4=
EXTT5=
EXTT6=
EXTT7=
EXTT8=
EXTT9=
EXTT10=
EXTT11=
EXTT12=
EXTT13=
EXTT14=
EXTT15=
EXTT16=
EXTT17=
EXTT18=
PLAYORDER=
